<svg width="14" height="10" viewBox="0 0 14 10" fill="none" xmlns="http://www.w3.org/2000/svg">
<path d="M4.08594 5.58464C5.05427 5.58464 5.83594 4.80297 5.83594 3.83464C5.83594 2.8663 5.05427 2.08464 4.08594 2.08464C3.1176 2.08464 2.33594 2.8663 2.33594 3.83464C2.33594 4.80297 3.1176 5.58464 4.08594 5.58464ZM11.0859 2.08464H7.58594C6.94427 2.08464 6.41927 2.60964 6.41927 3.2513V6.16797H1.7526V1.5013C1.7526 1.18047 1.4901 0.917969 1.16927 0.917969C0.848437 0.917969 0.585938 1.18047 0.585938 1.5013V9.08463C0.585938 9.40547 0.848437 9.66797 1.16927 9.66797C1.4901 9.66797 1.7526 9.40547 1.7526 9.08463V7.91797H12.2526V9.08463C12.2526 9.40547 12.5151 9.66797 12.8359 9.66797C13.1568 9.66797 13.4193 9.40547 13.4193 9.08463V4.41797C13.4193 3.1288 12.3751 2.08464 11.0859 2.08464Z" fill="#323232"/>
</svg>
