<svg width="12" height="12" viewBox="0 0 12 12" fill="none" xmlns="http://www.w3.org/2000/svg">
<path d="M5.99935 0.167969C2.77935 0.167969 0.166016 2.7813 0.166016 6.0013C0.166016 9.2213 2.77935 11.8346 5.99935 11.8346C9.21935 11.8346 11.8327 9.2213 11.8327 6.0013C11.8327 2.7813 9.21935 0.167969 5.99935 0.167969ZM5.41602 10.6271C3.11185 10.3413 1.33268 8.3813 1.33268 6.0013C1.33268 5.63964 1.37935 5.29547 1.45518 4.95714L4.24935 7.7513V8.33464C4.24935 8.9763 4.77435 9.5013 5.41602 9.5013V10.6271ZM9.44102 9.14547C9.28935 8.67297 8.85768 8.33464 8.33268 8.33464H7.74935V6.58464C7.74935 6.2638 7.48685 6.0013 7.16602 6.0013H3.66602V4.83464H4.83268C5.15352 4.83464 5.41602 4.57214 5.41602 4.2513V3.08464H6.58268C7.22435 3.08464 7.74935 2.55964 7.74935 1.91797V1.6788C9.45852 2.37297 10.666 4.04714 10.666 6.0013C10.666 7.21464 10.1993 8.31714 9.44102 9.14547Z" fill="#323232"/>
</svg>
