<svg width="14" height="12" viewBox="0 0 14 12" fill="none" xmlns="http://www.w3.org/2000/svg">
<path d="M10.6755 4.59796H7.3505V5.82296C7.3505 6.6914 6.64394 7.39796 5.7755 7.39796C4.90706 7.39796 4.2005 6.6914 4.2005 5.82296V3.16296L2.78081 4.01609C2.35862 4.26765 2.1005 4.72484 2.1005 5.21484V6.24953L0.350499 7.26015C0.0158114 7.45265 -0.100126 7.8814 0.0945614 8.21609L1.84456 11.248C2.03706 11.5827 2.46581 11.6964 2.8005 11.5039L5.06237 10.198H8.0505C8.82269 10.198 9.4505 9.57015 9.4505 8.79796H9.8005C10.1877 8.79796 10.5005 8.48515 10.5005 8.09796V6.69796H10.6755C10.9664 6.69796 11.2005 6.4639 11.2005 6.17296V5.12296C11.2005 4.83203 10.9664 4.59796 10.6755 4.59796ZM13.9064 3.77984L12.1564 0.747964C11.9639 0.413277 11.5352 0.299527 11.2005 0.492027L8.93862 1.79796H6.703C6.4405 1.79796 6.18456 1.87234 5.96144 2.01015L5.22862 2.46734C5.023 2.59421 4.9005 2.81953 4.9005 3.06015V5.82296C4.9005 6.3064 5.29206 6.69796 5.7755 6.69796C6.25894 6.69796 6.6505 6.3064 6.6505 5.82296V3.89796H10.6755C11.3514 3.89796 11.9005 4.44703 11.9005 5.12296V5.7464L13.6505 4.73578C13.9852 4.54109 14.0989 4.11453 13.9064 3.77984Z" fill="#323232"/>
</svg>