<svg width="8" height="12" viewBox="0 0 8 12" fill="none" xmlns="http://www.w3.org/2000/svg">
<path d="M1.24516 0.326258L2.10652 0.0543447C2.3908 -0.0352532 2.6965 -0.0135141 2.96659 0.115507C3.23669 0.244528 3.45274 0.472019 3.57443 0.755545L4.17832 2.16167C4.28313 2.40561 4.31235 2.6778 4.26186 2.94001C4.21138 3.20222 4.08373 3.4413 3.89683 3.62367L2.97766 4.52042C2.85448 4.64288 2.94787 5.12012 3.39789 5.93679C3.84836 6.75393 4.19655 7.07705 4.35709 7.02677L5.5613 6.64125C5.8054 6.56308 6.06674 6.56683 6.30869 6.652C6.55064 6.73717 6.76107 6.89947 6.91049 7.11617L7.76874 8.36166C7.94209 8.61316 8.02236 8.922 7.99463 9.2308C7.9669 9.53959 7.83307 9.82736 7.61799 10.0406L6.95451 10.6985C6.74033 10.9109 6.47618 11.06 6.189 11.1306C5.90182 11.2012 5.6019 11.1907 5.31984 11.1003C3.92974 10.6548 2.64237 9.33244 1.44037 7.15202C0.235713 4.96833 -0.219203 3.1264 0.0978601 1.62157C0.161808 1.31835 0.301834 1.03847 0.503503 0.810778C0.705172 0.583092 0.961187 0.415838 1.24516 0.326258Z" fill="#323232"/>
</svg>
