<svg width="10" height="13" viewBox="0 0 10 13" fill="none" xmlns="http://www.w3.org/2000/svg">
<path d="M4.71427 0.785156C3.46443 0.786669 2.2662 1.29182 1.38242 2.1898C0.498648 3.08778 0.00148863 4.30527 0 5.5752C0 9.67379 4.2857 12.7696 4.46817 12.8993C4.54034 12.9506 4.62625 12.978 4.71427 12.978C4.8023 12.978 4.88821 12.9506 4.96038 12.8993C5.14284 12.7696 9.42855 9.67379 9.42855 5.5752C9.42706 4.30527 8.9299 3.08778 8.04613 2.1898C7.16235 1.29182 5.96412 0.786669 4.71427 0.785156ZM4.7146 3.83353C5.05365 3.83353 5.38509 3.93569 5.667 4.12708C5.94891 4.31848 6.16864 4.59052 6.29839 4.90879C6.42814 5.22707 6.46208 5.5773 6.39594 5.91518C6.32979 6.25306 6.16652 6.56343 5.92678 6.80703C5.68703 7.05063 5.38157 7.21652 5.04904 7.28373C4.7165 7.35094 4.37181 7.31645 4.05857 7.18461C3.74533 7.05278 3.47759 6.82952 3.28922 6.54308C3.10086 6.25663 3.00031 5.91987 3.00031 5.57537C3.00031 5.1134 3.18093 4.67036 3.50242 4.3437C3.82391 4.01704 4.25994 3.83353 4.7146 3.83353Z" fill="#323232"/>
</svg>
