<svg width="17" height="17" viewBox="0 0 168 167" fill="none" xmlns="http://www.w3.org/2000/svg">
<path d="M123.108 107.697H115.374L112.633 105.053C124.381 91.3473 130.451 72.6483 127.122 52.7745C122.521 25.5582 99.808 3.82425 72.3959 0.495627C30.984 -4.5952 -3.86864 30.2574 1.22219 71.6693C4.55081 99.0815 26.2847 121.794 53.5011 126.396C73.3749 129.724 92.0739 123.655 105.78 111.906L108.423 114.648V122.382L150.031 163.99C154.045 168.003 160.604 168.003 164.618 163.99C168.632 159.976 168.632 153.416 164.618 149.402L123.108 107.697ZM64.368 107.697C39.9908 107.697 20.3128 88.0187 20.3128 63.6415C20.3128 39.2642 39.9908 19.5862 64.368 19.5862C88.7453 19.5862 108.423 39.2642 108.423 63.6415C108.423 88.0187 88.7453 107.697 64.368 107.697Z" fill="#323232"/>
</svg>
