<svg width="18" height="18" viewBox="0 0 12 13" fill="none" xmlns="http://www.w3.org/2000/svg">
<path d="M4.5 10.001H7.5C7.9125 10.001 8.25 9.66352 8.25 9.25102V5.50102H9.4425C10.11 5.50102 10.4475 4.69102 9.975 4.21852L6.5325 0.776016C6.24 0.483516 5.7675 0.483516 5.475 0.776016L2.0325 4.21852C1.56 4.69102 1.89 5.50102 2.5575 5.50102H3.75V9.25102C3.75 9.66352 4.0875 10.001 4.5 10.001ZM1.5 11.501H10.5C10.9125 11.501 11.25 11.8385 11.25 12.251C11.25 12.6635 10.9125 13.001 10.5 13.001H1.5C1.0875 13.001 0.75 12.6635 0.75 12.251C0.75 11.8385 1.0875 11.501 1.5 11.501Z" fill="#323232"/>
</svg>
