<svg width="11" height="12" viewBox="0 0 11 12" fill="none" xmlns="http://www.w3.org/2000/svg">
<path d="M9.96813 2.79847H1.63615C1.53663 2.81803 1.43409 2.815 1.33586 2.78959C1.23764 2.76418 1.14616 2.71702 1.06798 2.6515C0.989799 2.58597 0.926853 2.50369 0.883649 2.41056C0.840445 2.31743 0.818052 2.21574 0.818074 2.11279V2.09952L9.6244 1.75109V0.920176C9.63875 0.796201 9.62519 0.670535 9.58473 0.552665C9.54426 0.434796 9.47796 0.327806 9.39083 0.239774C9.30369 0.151742 9.198 0.0849707 9.08174 0.0445014C8.96548 0.0040322 8.84169 -0.00907662 8.71971 0.00616489L0.900569 1.29723C0.636676 1.39618 0.408927 1.5748 0.247934 1.8091C0.0869416 2.04339 0.000420476 2.32213 0 2.60785L0 10.1294C0 10.4072 0.108642 10.6736 0.302027 10.87C0.495412 11.0664 0.757698 11.1768 1.03119 11.1768H9.96813C10.2416 11.1768 10.5039 11.0664 10.6973 10.87C10.8907 10.6736 10.9993 10.4072 10.9993 10.1294V3.83817L11 3.80954C11 3.54102 10.895 3.28349 10.708 3.09362C10.5211 2.90375 10.2676 2.79708 10.0032 2.79708L9.96675 2.79777L9.96813 2.79847ZM8.93694 7.68623C8.66336 7.68614 8.40103 7.57566 8.20764 7.37911C8.01426 7.18256 7.90567 6.91603 7.90576 6.63816C7.90585 6.36028 8.01461 6.09382 8.20813 5.8974C8.40164 5.70098 8.66405 5.59069 8.93763 5.59078C9.07309 5.59082 9.20722 5.61797 9.33235 5.67067C9.45749 5.72336 9.57118 5.80057 9.66693 5.8979C9.76268 5.99522 9.83863 6.11075 9.89043 6.23788C9.94222 6.36501 9.96886 6.50126 9.96882 6.63885C9.96877 6.77644 9.94204 6.91268 9.89016 7.03977C9.83828 7.16687 9.76226 7.28235 9.66644 7.37961C9.57063 7.47686 9.45689 7.554 9.33172 7.60661C9.20655 7.65922 9.0724 7.68628 8.93694 7.68623V7.68623Z" fill="#323232"/>
</svg>
