<svg width="12" height="12" viewBox="0 0 12 12" fill="none" xmlns="http://www.w3.org/2000/svg">
<path d="M6.00033 0.166016C4.8466 0.166016 3.71879 0.508135 2.7595 1.14911C1.80021 1.79008 1.05254 2.70113 0.611031 3.76703C0.16952 4.83293 0.0540002 6.00582 0.279081 7.13738C0.504161 8.26893 1.05973 9.30833 1.87554 10.1241C2.69134 10.9399 3.73075 11.4955 4.8623 11.7206C5.99386 11.9457 7.16675 11.8302 8.23265 11.3886C9.29855 10.9471 10.2096 10.1995 10.8506 9.24018C11.4915 8.28089 11.8337 7.15307 11.8337 5.99935C11.8337 5.2333 11.6828 4.47476 11.3896 3.76703C11.0965 3.0593 10.6668 2.41623 10.1251 1.87456C9.58344 1.33288 8.94038 0.903204 8.23265 0.610052C7.52492 0.316899 6.76637 0.166016 6.00033 0.166016ZM6.00033 8.91602C5.88496 8.91602 5.77217 8.8818 5.67625 8.81771C5.58032 8.75361 5.50555 8.6625 5.4614 8.55591C5.41725 8.44932 5.4057 8.33204 5.4282 8.21888C5.45071 8.10572 5.50627 8.00178 5.58785 7.9202C5.66943 7.83862 5.77337 7.78307 5.88653 7.76056C5.99968 7.73805 6.11697 7.7496 6.22356 7.79375C6.33015 7.8379 6.42125 7.91267 6.48535 8.0086C6.54945 8.10453 6.58366 8.21731 6.58366 8.33268C6.58366 8.48739 6.5222 8.63577 6.41281 8.74516C6.30341 8.85456 6.15504 8.91602 6.00033 8.91602ZM6.58366 6.58268C6.58366 6.73739 6.5222 6.88576 6.41281 6.99516C6.30341 7.10456 6.15504 7.16602 6.00033 7.16602C5.84562 7.16602 5.69725 7.10456 5.58785 6.99516C5.47845 6.88576 5.41699 6.73739 5.41699 6.58268V3.66602C5.41699 3.51131 5.47845 3.36293 5.58785 3.25354C5.69725 3.14414 5.84562 3.08268 6.00033 3.08268C6.15504 3.08268 6.30341 3.14414 6.41281 3.25354C6.5222 3.36293 6.58366 3.51131 6.58366 3.66602V6.58268Z" fill="#323232"/>
</svg>
